<svg width="173" height="34" viewBox="0 0 173 34" fill="none" xmlns="http://www.w3.org/2000/svg">
<path d="M65.8362 25.0646H60.8931L68.425 3.24645H74.3696L81.8909 25.0646H76.9478L71.4826 8.23224H71.3121L65.8362 25.0646ZM65.5273 16.4886H77.2034V20.0895H65.5273V16.4886Z" fill="white"/>
<path d="M84.4318 31.201V8.70099H88.9062V11.4496H89.1086C89.3075 11.0092 89.5951 10.5618 89.9715 10.1072C90.3551 9.6456 90.8522 9.26207 91.463 8.95668C92.0809 8.64418 92.848 8.48793 93.7642 8.48793C94.9573 8.48793 96.0582 8.80043 97.0667 9.42543C98.0752 10.0433 98.8813 10.9773 99.485 12.2273C100.089 13.4702 100.391 15.0291 100.391 16.9041C100.391 18.7294 100.096 20.2706 99.5063 21.5277C98.924 22.7777 98.1285 23.7259 97.12 24.3722C96.1186 25.0114 94.9964 25.331 93.7535 25.331C92.8728 25.331 92.1235 25.1854 91.5056 24.8942C90.8948 24.603 90.3941 24.2372 90.0035 23.7969C89.6129 23.3494 89.3146 22.8984 89.1086 22.4439H88.9701V31.201H84.4318ZM88.8742 16.8828C88.8742 17.8558 89.0092 18.7045 89.2791 19.429C89.549 20.1534 89.9396 20.718 90.451 21.1229C90.9623 21.5206 91.5838 21.7195 92.3153 21.7195C93.0539 21.7195 93.6789 21.517 94.1903 21.1122C94.7017 20.7003 95.0887 20.1321 95.3515 19.4077C95.6214 18.6761 95.7563 17.8345 95.7563 16.8828C95.7563 15.9382 95.625 15.1072 95.3622 14.3899C95.0994 13.6726 94.7123 13.1115 94.201 12.7067C93.6896 12.3018 93.061 12.0994 92.3153 12.0994C91.5767 12.0994 90.9517 12.2947 90.4403 12.6854C89.936 13.076 89.549 13.63 89.2791 14.3473C89.0092 15.0646 88.8742 15.9098 88.8742 16.8828Z" fill="white"/>
<path d="M103.416 31.201V8.70099H107.891V11.4496H108.093C108.292 11.0092 108.58 10.5618 108.956 10.1072C109.339 9.6456 109.837 9.26207 110.447 8.95668C111.065 8.64418 111.832 8.48793 112.749 8.48793C113.942 8.48793 115.043 8.80043 116.051 9.42543C117.06 10.0433 117.866 10.9773 118.469 12.2273C119.073 13.4702 119.375 15.0291 119.375 16.9041C119.375 18.7294 119.08 20.2706 118.491 21.5277C117.908 22.7777 117.113 23.7259 116.104 24.3722C115.103 25.0114 113.981 25.331 112.738 25.331C111.857 25.331 111.108 25.1854 110.49 24.8942C109.879 24.603 109.379 24.2372 108.988 23.7969C108.597 23.3494 108.299 22.8984 108.093 22.4439H107.955V31.201H103.416ZM107.859 16.8828C107.859 17.8558 107.994 18.7045 108.263 19.429C108.533 20.1534 108.924 20.718 109.435 21.1229C109.947 21.5206 110.568 21.7195 111.3 21.7195C112.038 21.7195 112.663 21.517 113.175 21.1122C113.686 20.7003 114.073 20.1321 114.336 19.4077C114.606 18.6761 114.741 17.8345 114.741 16.8828C114.741 15.9382 114.609 15.1072 114.347 14.3899C114.084 13.6726 113.697 13.1115 113.185 12.7067C112.674 12.3018 112.045 12.0994 111.3 12.0994C110.561 12.0994 109.936 12.2947 109.425 12.6854C108.92 13.076 108.533 13.63 108.263 14.3473C107.994 15.0646 107.859 15.9098 107.859 16.8828Z" fill="white"/>
<path d="M126.939 3.24645V25.0646H122.401V3.24645H126.939Z" fill="white"/>
<path d="M130.574 25.0646V8.70099H135.113V25.0646H130.574ZM132.854 6.59162C132.179 6.59162 131.601 6.3679 131.118 5.92045C130.642 5.46591 130.404 4.92259 130.404 4.29048C130.404 3.66548 130.642 3.12926 131.118 2.68182C131.601 2.22727 132.179 2 132.854 2C133.529 2 134.104 2.22727 134.58 2.68182C135.063 3.12926 135.304 3.66548 135.304 4.29048C135.304 4.92259 135.063 5.46591 134.58 5.92045C134.104 6.3679 133.529 6.59162 132.854 6.59162Z" fill="white"/>
<path d="M143.287 15.6044V25.0646H138.748V8.70099H143.073V11.5881H143.265C143.627 10.6364 144.235 9.88352 145.087 9.32955C145.939 8.76847 146.973 8.48793 148.187 8.48793C149.323 8.48793 150.314 8.73651 151.159 9.23367C152.005 9.73082 152.662 10.4411 153.13 11.3643C153.599 12.2805 153.833 13.3743 153.833 14.6456V25.0646H149.295V15.4553C149.302 14.4538 149.046 13.6726 148.528 13.1115C148.01 12.5433 147.296 12.2592 146.387 12.2592C145.776 12.2592 145.236 12.3906 144.767 12.6534C144.306 12.9162 143.943 13.2997 143.681 13.804C143.425 14.3011 143.294 14.9013 143.287 15.6044Z" fill="white"/>
<path d="M164.868 25.3842C163.184 25.3842 161.736 25.0433 160.521 24.3615C159.314 23.6726 158.383 22.6996 157.73 21.4425C157.076 20.1783 156.75 18.6832 156.75 16.9574C156.75 15.2741 157.076 13.7969 157.73 12.5256C158.383 11.2543 159.303 10.2635 160.489 9.55327C161.682 8.84304 163.081 8.48793 164.687 8.48793C165.766 8.48793 166.771 8.66193 167.701 9.00994C168.639 9.35085 169.456 9.86577 170.152 10.5547C170.855 11.2436 171.402 12.1101 171.792 13.1541C172.183 14.1911 172.378 15.4055 172.378 16.7976V18.044H158.561V15.2315H168.106C168.106 14.5781 167.964 13.9993 167.68 13.495C167.396 12.9908 167.002 12.5966 166.498 12.3125C166 12.0213 165.422 11.8757 164.761 11.8757C164.072 11.8757 163.461 12.0355 162.929 12.3551C162.403 12.6676 161.991 13.0902 161.693 13.6229C161.395 14.1484 161.242 14.7344 161.235 15.3807V18.0547C161.235 18.8643 161.384 19.5639 161.682 20.1534C161.988 20.7429 162.417 21.1974 162.971 21.517C163.525 21.8366 164.182 21.9965 164.942 21.9965C165.447 21.9965 165.908 21.9254 166.327 21.7834C166.746 21.6413 167.105 21.4283 167.403 21.1442C167.701 20.8601 167.929 20.5121 168.085 20.1001L172.282 20.3771C172.069 21.3857 171.633 22.2663 170.972 23.0192C170.319 23.7649 169.474 24.3473 168.437 24.7663C167.407 25.1783 166.217 25.3842 164.868 25.3842Z" fill="white"/>
<path d="M13.3694 24.0919C13.3694 27.7838 10.3765 30.7766 6.68468 30.7766C2.99284 30.7766 0 27.7838 0 24.0919C0 20.4001 2.99284 17.4072 6.68468 17.4072C10.3765 17.4072 13.3694 20.4001 13.3694 24.0919Z" fill="#7083F5"/>
<path d="M9.28202 12.4207C7.37017 9.10924 8.3115 4.98652 11.3845 3.2123C14.4576 1.43809 18.4986 2.68424 20.4105 5.99567L29.2438 21.2954C31.1556 24.6069 30.2143 28.7296 27.1413 30.5038C24.0683 32.278 20.0272 31.0319 18.1154 27.7204L9.28202 12.4207Z" fill="#7083F5"/>
<path d="M26.4695 12.4207C24.5577 9.10924 25.499 4.98652 28.572 3.2123C31.6451 1.43809 35.6861 2.68424 37.598 5.99567L46.4313 21.2954C48.3431 24.6069 47.4018 28.7296 44.3288 30.5038C41.2558 32.278 37.2147 31.0319 35.3029 27.7204L26.4695 12.4207Z" fill="#7083F5"/>
</svg>
