<?xml version="1.0" standalone="no"?>
<!DOCTYPE svg PUBLIC "-//W3C//DTD SVG 20010904//EN"
 "http://www.w3.org/TR/2001/REC-SVG-20010904/DTD/svg10.dtd">
<svg version="1.0" xmlns="http://www.w3.org/2000/svg"
 width="1509.000000pt" height="1509.000000pt" viewBox="0 0 1509.000000 1509.000000"
 preserveAspectRatio="xMidYMid meet">
<metadata>
Created by potrace 1.14, written by Peter Selinger 2001-2017
</metadata>
<g transform="translate(0.000000,1509.000000) scale(0.100000,-0.100000)"
fill="#000000" stroke="none">
<path d="M8354 11737 c-37 -66 -51 -91 -95 -174 -20 -38 -47 -88 -61 -113 -14
-25 -52 -97 -85 -160 -33 -63 -85 -162 -116 -220 -65 -123 -417 -827 -417
-833 0 -3 -40 -87 -89 -188 -49 -101 -103 -215 -121 -254 -28 -62 -242 -524
-304 -659 -13 -28 -63 -139 -111 -246 -47 -107 -97 -219 -111 -248 -13 -29
-24 -54 -24 -57 0 -2 -16 -39 -36 -82 -20 -42 -62 -138 -94 -213 -32 -74 -70
-162 -84 -195 -51 -115 -65 -148 -111 -260 -21 -49 -46 -110 -57 -135 -32 -73
-32 -74 -143 -340 -59 -140 -112 -268 -120 -285 -7 -16 -34 -82 -60 -145 -26
-63 -53 -128 -60 -145 -7 -16 -43 -104 -80 -195 -37 -91 -107 -264 -157 -385
-49 -121 -150 -371 -225 -555 -156 -385 -301 -744 -479 -1182 -68 -169 -124
-312 -124 -317 0 -6 5 -11 11 -11 7 0 219 -81 473 -181 254 -99 529 -206 611
-239 83 -32 319 -124 525 -205 206 -81 409 -160 450 -175 l76 -28 59 181 c82
254 355 1077 405 1222 23 66 70 203 105 305 64 188 143 411 233 665 28 77 67
187 87 245 20 58 40 114 45 125 5 11 23 61 40 110 49 139 250 687 261 710 5
11 38 99 73 195 246 671 877 2233 1102 2728 13 29 36 80 50 115 15 34 34 80
44 102 10 22 64 144 121 270 56 127 155 347 220 490 l118 259 -37 17 c-20 9
-379 166 -797 349 -825 361 -842 368 -866 381 -13 6 -22 -3 -45 -44z"/>
<path d="M3464 10582 c-83 -53 -158 -101 -167 -107 -10 -5 -113 -71 -229 -144
-117 -74 -330 -209 -473 -299 -143 -91 -325 -206 -405 -257 -369 -234 -792
-501 -815 -515 -14 -8 -100 -63 -192 -121 -93 -59 -364 -230 -603 -381 -239
-151 -467 -295 -506 -320 l-72 -46 3 -89 c5 -131 15 -392 20 -523 3 -63 7
-178 10 -255 3 -77 7 -203 10 -280 3 -77 7 -189 10 -250 9 -230 18 -482 19
-529 l2 -50 314 -188 c172 -103 317 -188 322 -188 4 0 8 -4 8 -10 0 -5 4 -10
9 -10 7 0 2218 -1318 2281 -1360 8 -5 32 -20 54 -32 21 -13 46 -27 55 -33 9
-5 52 -32 96 -58 86 -51 91 -55 172 -104 30 -18 56 -33 59 -33 3 0 25 -13 49
-30 24 -16 46 -30 50 -30 3 0 24 -12 46 -26 23 -14 42 -24 44 -22 1 2 21 41
43 88 59 127 225 476 299 630 36 74 82 171 103 215 45 95 161 339 302 635 102
213 129 272 126 276 -3 3 -196 97 -713 349 -99 48 -272 133 -385 188 -393 191
-616 300 -775 377 -88 43 -299 146 -470 229 -170 84 -331 162 -357 173 -26 11
-45 24 -43 29 5 7 108 63 380 204 72 37 171 89 220 115 50 26 146 77 215 113
69 36 163 85 210 109 47 25 162 85 255 133 94 48 193 100 220 115 28 15 127
67 220 115 94 48 197 102 230 120 33 18 121 64 195 102 74 39 207 107 295 153
88 46 164 86 169 91 7 6 -173 456 -294 734 -10 22 -86 204 -170 405 -84 201
-158 379 -165 395 -7 17 -30 71 -50 120 -56 135 -74 175 -77 174 -2 0 -71 -44
-154 -97z"/>
<path d="M11441 10667 c-6 -6 -11 -14 -11 -18 0 -4 -34 -78 -76 -165 -42 -88
-97 -202 -121 -254 -91 -191 -142 -298 -203 -425 -34 -71 -102 -213 -150 -315
-48 -102 -116 -243 -150 -315 -110 -229 -150 -314 -150 -317 0 -6 -15 1 815
-403 105 -51 298 -145 430 -210 132 -65 330 -161 440 -215 110 -54 353 -173
540 -265 187 -91 379 -185 427 -208 49 -23 88 -44 88 -47 0 -3 -10 -10 -23
-16 -20 -9 -102 -52 -392 -204 -130 -68 -491 -255 -776 -403 -72 -37 -172 -89
-222 -116 -51 -26 -168 -88 -262 -136 -93 -49 -204 -106 -245 -127 -129 -68
-399 -208 -555 -289 -82 -43 -151 -81 -152 -86 -2 -5 74 -193 168 -418 94
-226 188 -450 209 -500 140 -337 322 -773 330 -790 5 -11 21 -46 35 -79 l25
-58 27 18 c16 10 69 43 118 74 50 31 128 81 175 112 47 30 123 78 170 107 47
29 119 75 160 102 41 27 91 58 110 69 19 11 80 49 135 85 107 68 221 140 261
165 13 8 174 110 357 226 182 117 424 270 537 341 113 72 392 249 620 393 228
145 525 333 660 418 135 85 257 163 272 174 28 19 28 20 23 116 -2 53 -7 165
-10 247 -3 83 -7 179 -10 215 -2 36 -7 135 -10 220 -3 85 -8 196 -10 245 -2
50 -7 153 -10 230 -3 77 -8 183 -10 235 -2 52 -7 167 -11 255 -3 88 -8 174 -9
190 -2 17 -3 35 -4 41 -1 9 -226 148 -394 243 -18 10 -133 79 -257 152 -194
117 -300 179 -443 263 -46 26 -334 197 -457 271 -58 34 -204 121 -325 192
-121 71 -236 139 -255 150 -19 12 -80 48 -135 80 -55 33 -163 97 -240 143 -77
46 -216 128 -310 183 -93 54 -186 110 -205 122 -19 13 -54 33 -77 46 -23 13
-135 79 -247 145 -146 87 -207 119 -215 111z"/>
</g>
</svg>
