<svg width="816" height="592" viewBox="0 0 816 592" fill="none" xmlns="http://www.w3.org/2000/svg">
<path d="M591.439 217.85C581.248 194.246 567.236 172.555 548.764 154.054C530.293 135.553 509.274 121.518 485.07 111.311C460.866 101.104 434.752 96 407.363 96C380.611 96 354.497 101.104 329.656 111.949C306.089 122.156 284.433 136.191 265.962 154.692C247.49 173.193 233.478 194.246 223.287 218.488C213.096 242.73 208 268.887 208 295.681C208 322.475 213.096 348.632 223.924 373.512C234.115 397.116 248.127 418.807 266.599 437.308C285.07 455.809 306.089 469.844 330.293 480.051C355.134 490.258 381.248 496 408 496C434.752 496 460.866 490.896 485.707 480.051C509.274 469.844 530.93 455.809 549.401 437.308C567.873 418.807 581.885 397.754 592.076 373.512C602.268 348.632 608 322.475 608 295.681C607.363 268.887 602.268 242.73 591.439 217.85ZM341.121 277.18C349.401 245.282 378.701 221.678 413.096 221.678H551.949C560.866 238.903 566.599 257.404 568.51 277.18H341.121ZM568.51 314.82C565.962 334.596 560.866 353.097 551.949 370.322H413.096C378.701 370.322 349.401 346.718 341.121 314.82H568.51ZM292.713 180.848C323.287 150.226 364.051 133.002 407.363 133.002C450.675 133.002 491.439 149.589 522.013 180.848C522.65 181.486 523.924 182.762 524.561 183.4H413.096C383.159 183.4 355.134 194.884 334.115 215.936C317.554 232.523 306.726 253.576 302.904 276.542H246.854C250.675 240.817 266.599 207.643 292.713 180.848ZM407.363 458.36C364.051 458.36 323.287 441.774 292.713 410.514C266.599 384.357 250.675 351.183 246.854 314.82H303.541C307.363 337.786 318.191 358.839 334.752 375.426C355.771 396.478 383.796 407.962 413.732 407.962H525.834C525.197 409.238 523.924 409.876 523.287 410.514C491.439 441.136 450.675 458.36 407.363 458.36Z" fill="white"/>
</svg>
