<svg width="505" height="138" viewBox="0 0 505 138" fill="none" xmlns="http://www.w3.org/2000/svg">
<path d="M90 104.824V86.6599L135.543 14.9092H151.204V40.0512H141.935L113.224 85.488V86.3403H177.944V104.824H90ZM142.362 124V99.2842L142.788 91.2409V14.9092H164.414V124H142.362Z" fill="#7083F5"/>
<path d="M325.944 104.824V86.6599L371.487 14.9092H387.148V40.0512H377.879L349.168 85.488V86.3403H413.888V104.824H325.944ZM378.305 124V99.2842L378.731 91.2409V14.9092H400.358V124H378.305Z" fill="#7083F5"/>
<g clip-path="url(#clip0_62_362)">
<path d="M251.944 126.5C220.187 126.5 194.444 100.757 194.444 69C194.444 37.2428 220.187 11.5 251.944 11.5C283.701 11.5 309.444 37.2428 309.444 69C309.444 100.757 283.701 126.5 251.944 126.5ZM246.194 86.25V97.75H257.694V86.25H246.194ZM246.194 40.25V74.75H257.694V40.25H246.194Z" fill="url(#paint0_linear_62_362)"/>
</g>
<g clip-path="url(#clip1_62_362)">
<path d="M21.8126 44.2165C21.8159 44.1437 21.8196 44.0715 21.8237 44C21.8203 44.0724 21.8165 44.1445 21.8126 44.2165C21.4747 51.6386 25.1425 65.8522 42.5976 65.0032C35.4678 65.503 21.3391 70.5685 21.822 86.8298C21.6005 79.7375 17.0094 65.7229 0.441399 65.645C0.291298 65.6473 0.144104 65.6477 0 65.6462C0.148069 65.6447 0.2952 65.6443 0.441399 65.645C7.47462 65.5363 20.8883 61.1617 21.8126 44.2165Z" fill="#7083F5"/>
<path d="M58.7834 68.2896C58.7853 68.2459 58.7876 68.2025 58.79 68.1597C58.788 68.2031 58.7857 68.2464 58.7834 68.2896C58.5806 72.7428 60.7813 81.271 71.2544 80.7616C66.9765 81.0614 58.4992 84.1008 58.7891 93.8576C58.6561 89.6022 55.9015 81.1934 45.9607 81.1467C45.8706 81.1481 45.7822 81.1482 45.6958 81.1474C45.7846 81.1465 45.8729 81.1462 45.9607 81.1467C50.1806 81.0815 58.2288 78.4567 58.7834 68.2896Z" fill="#7ED8FF"/>
</g>
<g clip-path="url(#clip2_62_362)">
<path d="M454.813 44.2165C454.816 44.1437 454.82 44.0715 454.824 44C454.82 44.0724 454.817 44.1445 454.813 44.2165C454.475 51.6386 458.142 65.8522 475.598 65.0032C468.468 65.503 454.339 70.5685 454.822 86.8298C454.6 79.7375 450.009 65.7229 433.441 65.645C433.291 65.6473 433.144 65.6477 433 65.6462C433.148 65.6447 433.295 65.6443 433.441 65.645C440.475 65.5363 453.888 61.1617 454.813 44.2165Z" fill="#FF9996"/>
<path d="M491.783 68.2896C491.785 68.2459 491.788 68.2025 491.79 68.1597C491.788 68.2031 491.786 68.2464 491.783 68.2896C491.581 72.7428 493.781 81.271 504.254 80.7616C499.977 81.0614 491.499 84.1008 491.789 93.8576C491.656 89.6022 488.901 81.1934 478.961 81.1467C478.871 81.1481 478.782 81.1482 478.696 81.1474C478.785 81.1465 478.873 81.1462 478.961 81.1467C483.181 81.0815 491.229 78.4567 491.783 68.2896Z" fill="#FFCB78"/>
</g>
<defs>
<linearGradient id="paint0_linear_62_362" x1="194.444" y1="11.5" x2="330.4" y2="90.3804" gradientUnits="userSpaceOnUse">
<stop stop-color="#FF8FE8"/>
<stop offset="1" stop-color="#FFC960"/>
</linearGradient>
<clipPath id="clip0_62_362">
<rect width="138" height="138" fill="white" transform="translate(182.944)"/>
</clipPath>
<clipPath id="clip1_62_362">
<rect width="71.2541" height="49.8779" fill="white" transform="translate(0 44)"/>
</clipPath>
<clipPath id="clip2_62_362">
<rect width="71.2541" height="49.8779" fill="white" transform="translate(433 44)"/>
</clipPath>
</defs>
</svg>
